REM DIRINDEX 1\2\6,1\2\4\7,1\2\4\8,1\2\5\9,1\3\12,1\3\10\13,1\3\10\14,1\3\10\15,1\3\11\16,1\3\11\17
REM DIRNAME folder01,folder02,folder03,folder04,folder05,folder06,folder07,folder08,folder09,folder10,folder11,folder12,folder13,folder14,folder15,folder16,folder17
TITLE ""
FILE "115.mp3" MP3
  TRACK 01 AUDIO
    TITLE "12:cjc048_09537"
    INDEX 01 00:00:00
  TRACK 02 AUDIO
    TITLE "16:cjc048_09538"
    INDEX 01 00:01:73
  TRACK 03 AUDIO
    TITLE "17:cjc048_09539"
    INDEX 01 00:02:73
  TRACK 04 AUDIO
    TITLE "16:cjc048_09540"
    INDEX 01 00:04:31
  TRACK 05 AUDIO
    TITLE "17:cjc048_09541"
    INDEX 01 00:05:40
  TRACK 06 AUDIO
    TITLE "16:cjc048_09542"
    INDEX 01 00:07:39
  TRACK 07 AUDIO
    TITLE "17:cjc048_09543"
    INDEX 01 00:08:38
  TRACK 08 AUDIO
    TITLE "16:cjc048_09544"
    INDEX 01 00:09:61
  TRACK 09 AUDIO
    TITLE "17:cjc048_09545"
    INDEX 01 00:11:09
  TRACK 10 AUDIO
    TITLE "16:cjc048_09546"
    INDEX 01 00:12:34
  TRACK 11 AUDIO
    TITLE "17:cjc048_09547"
    INDEX 01 00:13:26
  TRACK 12 AUDIO
    TITLE "16:cjc048_09548"
    INDEX 01 00:15:11
  TRACK 13 AUDIO
    TITLE "17:cjc048_09549"
    INDEX 01 00:16:10
  TRACK 14 AUDIO
    TITLE "16:cjc048_09550"
    INDEX 01 00:18:41
  TRACK 15 AUDIO
    TITLE "17:cjc048_09551"
    INDEX 01 00:19:36
  TRACK 16 AUDIO
    TITLE "16:cjc048_09552"
    INDEX 01 00:21:62
  TRACK 17 AUDIO
    TITLE "17:cjc048_09553"
    INDEX 01 00:22:54
  TRACK 18 AUDIO
    TITLE "16:cjc048_09554"
    INDEX 01 00:24:53
  TRACK 19 AUDIO
    TITLE "17:cjc048_09555"
    INDEX 01 00:25:66
  TRACK 20 AUDIO
    TITLE "16:cjc048_09556"
    INDEX 01 00:27:38
  TRACK 21 AUDIO
    TITLE "17:cjc048_09557"
    INDEX 01 00:28:37
  TRACK 22 AUDIO
    TITLE "16:cjc048_09558"
    INDEX 01 00:30:54
  TRACK 23 AUDIO
    TITLE "17:cjc048_09559"
    INDEX 01 00:31:37
  TRACK 24 AUDIO
    TITLE "16:cjc048_09560"
    INDEX 01 00:33:73
  TRACK 25 AUDIO
    TITLE "17:cjc048_09561"
    INDEX 01 00:34:61
  TRACK 26 AUDIO
    TITLE "16:cjc048_09562"
    INDEX 01 00:36:48
  TRACK 27 AUDIO
    TITLE "17:cjc048_09563"
    INDEX 01 00:37:36
  TRACK 28 AUDIO
    TITLE "16:cjc048_09564"
    INDEX 01 00:39:56
  TRACK 29 AUDIO
    TITLE "17:cjc048_09565"
    INDEX 01 00:40:38
  TRACK 30 AUDIO
    TITLE "16:cjc048_09566"
    INDEX 01 00:41:53
  TRACK 31 AUDIO
    TITLE "17:cjc048_09567"
    INDEX 01 00:42:59
  TRACK 32 AUDIO
    TITLE "16:cjc048_09568"
    INDEX 01 00:44:03
  TRACK 33 AUDIO
    TITLE "17:cjc048_09569"
    INDEX 01 00:44:71
  TRACK 34 AUDIO
    TITLE "16:cjc048_09570"
    INDEX 01 00:46:23
  TRACK 35 AUDIO
    TITLE "17:cjc048_09571"
    INDEX 01 00:47:15
  TRACK 36 AUDIO
    TITLE "16:cjc048_09572"
    INDEX 01 00:48:34
  TRACK 37 AUDIO
    TITLE "17:cjc048_09573"
    INDEX 01 00:49:25
  TRACK 38 AUDIO
    TITLE "16:cjc048_09574"
    INDEX 01 00:50:35
  TRACK 39 AUDIO
    TITLE "17:cjc048_09575"
    INDEX 01 00:51:38
  TRACK 40 AUDIO
    TITLE "16:cjc048_09576"
    INDEX 01 00:52:37
  TRACK 41 AUDIO
    TITLE "17:cjc048_09577"
    INDEX 01 00:53:25
  TRACK 42 AUDIO
    TITLE "16:cjc048_09578"
    INDEX 01 00:54:58
  TRACK 43 AUDIO
    TITLE "17:cjc048_09579"
    INDEX 01 00:55:51
  TRACK 44 AUDIO
    TITLE "16:cjc048_09580"
    INDEX 01 00:58:09
  TRACK 45 AUDIO
    TITLE "17:cjc048_09581"
    INDEX 01 00:58:73
  TRACK 46 AUDIO
    TITLE "16:cjc048_09582"
    INDEX 01 01:00:70
  TRACK 47 AUDIO
    TITLE "17:cjc048_09583"
    INDEX 01 01:01:74
  TRACK 48 AUDIO
    TITLE "16:cjc048_09584"
    INDEX 01 01:03:14
  TRACK 49 AUDIO
    TITLE "17:cjc048_09585"
    INDEX 01 01:04:01
  TRACK 50 AUDIO
    TITLE "16:cjc048_09586"
    INDEX 01 01:06:20
  TRACK 51 AUDIO
    TITLE "17:cjc048_09587"
    INDEX 01 01:07:10
  TRACK 52 AUDIO
    TITLE "16:cjc048_09588"
    INDEX 01 01:08:07
  TRACK 53 AUDIO
    TITLE "17:cjc048_09589"
    INDEX 01 01:09:03
  TRACK 54 AUDIO
    TITLE "16:cjc048_09590"
    INDEX 01 01:13:08
  TRACK 55 AUDIO
    TITLE "17:cjc048_09591"
    INDEX 01 01:14:00
  TRACK 56 AUDIO
    TITLE "16:cjc048_09592"
    INDEX 01 01:15:01
  TRACK 57 AUDIO
    TITLE "17:cjc048_09593"
    INDEX 01 01:15:66
  TRACK 58 AUDIO
    TITLE "16:cjc048_09594"
    INDEX 01 01:17:43
  TRACK 59 AUDIO
    TITLE "17:cjc048_09595"
    INDEX 01 01:18:35
  TRACK 60 AUDIO
    TITLE "16:cjc048_09596"
    INDEX 01 01:20:30
  TRACK 61 AUDIO
    TITLE "17:cjc048_09597"
    INDEX 01 01:21:45
  TRACK 62 AUDIO
    TITLE "16:cjc048_09598"
    INDEX 01 01:23:46
  TRACK 63 AUDIO
    TITLE "17:cjc048_09599"
    INDEX 01 01:24:37
  TRACK 64 AUDIO
    TITLE "16:cjc048_09600"
    INDEX 01 01:25:33
  TRACK 65 AUDIO
    TITLE "17:cjc048_09601"
    INDEX 01 01:26:30
  TRACK 66 AUDIO
    TITLE "16:cjc048_09602"
    INDEX 01 01:27:44
  TRACK 67 AUDIO
    TITLE "17:cjc048_09603"
    INDEX 01 01:28:37
  TRACK 68 AUDIO
    TITLE "16:cjc048_09604"
    INDEX 01 01:30:11
  TRACK 69 AUDIO
    TITLE "17:cjc048_09605"
    INDEX 01 01:31:12
  TRACK 70 AUDIO
    TITLE "16:cjc048_09606"
    INDEX 01 01:33:03
  TRACK 71 AUDIO
    TITLE "17:cjc048_09607"
    INDEX 01 01:33:66
  TRACK 72 AUDIO
    TITLE "16:cjc048_09608"
    INDEX 01 01:35:02
  TRACK 73 AUDIO
    TITLE "17:cjc048_09609"
    INDEX 01 01:35:55
  TRACK 74 AUDIO
    TITLE "16:cjc048_09610"
    INDEX 01 01:37:09
  TRACK 75 AUDIO
    TITLE "17:cjc048_09611"
    INDEX 01 01:38:02
  TRACK 76 AUDIO
    TITLE "16:cjc048_09612"
    INDEX 01 01:39:17
  TRACK 77 AUDIO
    TITLE "17:cjc048_09613"
    INDEX 01 01:40:50
  TRACK 78 AUDIO
    TITLE "16:cjc048_09614"
    INDEX 01 01:42:37
  TRACK 79 AUDIO
    TITLE "17:cjc048_09615"
    INDEX 01 01:43:31
  TRACK 80 AUDIO
    TITLE "0:"
    INDEX 01 01:44:42
